<svg xmlns="http://www.w3.org/2000/svg" width="40" height="33" viewBox="0 0 40 33"><g><g><path fill="#c5d5e6" d="M35.393 14.15V4.657H3.68c-.642 0-1.294-.322-1.294-1.037A1.285 1.285 0 0 1 3.68 2.353h33.967V14.15zm2.264 12.587h-2.264v-3.175h2.264zM26.313 21.21c-.732 0-1.325-.527-1.325-1.176V17.68c0-.65.596-1.176 1.325-1.176h11.334v4.705zm-23.96 8.146V6.807c.056.017.127.012.183.028.337.1.69.16 1.066.167.017 0 .029.007.045.007h29.395v7.142h-6.727c-2.028 0-3.677 1.583-3.677 3.529v2.353c0 1.946 1.65 3.53 3.677 3.53h6.727v7.058H3.647c-.713 0-1.294-.567-1.294-1.266zM.033 3.62H0v25.739c0 1.995 1.635 3.618 3.647 3.618h31.746v-3.894H40V0H3.68C1.67 0 .033 1.624.033 3.619z"/></g></g></svg>