<svg xmlns="http://www.w3.org/2000/svg" width="170" height="85" viewBox="0 0 170 85"><g><g><path fill="#c5d5e6" d="M0 10C0 4.477 4.477 0 10 0h150c5.523 0 10 4.477 10 10v65c0 5.523-4.477 10-10 10H10C4.477 85 0 80.523 0 75z"/></g><g><path fill="#fff" d="M87.653 40.135h-5.632l-1.93 9.053h-6.623l-.327 1.494h7.883l1.93-9.053h5.632c5.387 0 9.893-3.322 11.1-8.97.636-2.976-.026-5.187-1.303-6.71.612 1.373.822 3.1.37 5.217-1.207 5.648-5.713 8.97-11.1 8.97zM89.211 29.3c-.47 2.029-2.398 3.647-4.361 3.723l.924-4.098h3.501c-.02.125-.03.245-.064.375zm-5.64 3.748h-2.567l1.687-7.484h3.858c1.323 0 2.325.79 2.654 1.95-.169-.03-.325-.08-.51-.08h-3.857zM89.446 20H76.012L70.06 47.323h7.883l1.93-9.054h5.633c5.387 0 9.892-3.322 11.1-8.97C97.97 22.905 93.386 20 89.446 20z"/></g><g><g><text fill="#fff" dominant-baseline="text-before-edge" font-family="'Gilroy Light','Gilroy-Light'" font-size="12" transform="translate(66 61)"><tspan>PayPal</tspan></text></g></g></g></svg>