<svg xmlns="http://www.w3.org/2000/svg" width="170" height="85" viewBox="0 0 170 85"><g><g><path fill="#c5d5e6" d="M0 10C0 4.477 4.477 0 10 0h150c5.523 0 10 4.477 10 10v65c0 5.523-4.477 10-10 10H10C4.477 85 0 80.523 0 75z"/></g><g opacity=".8"><path fill="#fff" d="M42.5 45C49.404 45 55 39.404 55 32.5S49.404 20 42.5 20 30 25.596 30 32.5 35.596 45 42.5 45z"/></g><g opacity=".7"><path fill="#fff" d="M58.5 45C65.404 45 71 39.404 71 32.5S65.404 20 58.5 20 46 25.596 46 32.5 51.596 45 58.5 45z"/></g><g><path fill="#fff" d="M108.722 39.052h3.888l2.433-14.256h-3.89zm.859-14.244l-4.119.003-3.808 9.722-.406-1.468c-.751-1.769-2.883-4.309-5.386-5.91l3.482 11.889 4.114-.007zm-8.498 7.332l-1.311-6.308c-.226-.87-.881-1.129-1.694-1.16H92.05l-.05.286c4.691 1.138 7.795 3.883 9.083 7.182zm21.796-1.609c-1.36-.662-2.192-1.103-2.184-1.771 0-.594.706-1.228 2.228-1.228a7.174 7.174 0 0 1 2.91.546l.351.166.526-3.095c-.77-.289-1.977-.599-3.483-.599-3.842 0-6.55 1.936-6.571 4.711-.025 2.05 1.929 3.195 3.405 3.879 1.515.7 2.023 1.146 2.016 1.771-.012.956-1.208 1.394-2.325 1.394-1.557 0-2.384-.215-3.661-.748l-.501-.228-.547 3.195c.91.4 2.589.743 4.332.761 4.087 0 6.743-1.913 6.771-4.878.017-1.622-1.02-2.86-3.267-3.876zm9.014 3.471c.32-.818 1.549-3.982 1.549-3.982-.021.04.317-.824.518-1.36l.262 1.228.901 4.114zm4.795-9.192h-3.004c-.933 0-1.627.254-2.037 1.184l-5.773 13.074h4.083s.666-1.758.817-2.143l4.979.006c.116.498.474 2.137.474 2.137h3.607z"/></g><g><g><text fill="#fff" dominant-baseline="text-before-edge" font-family="'Gilroy Light','Gilroy-Light'" font-size="12" transform="translate(17 61)"><tspan>Карта Visa/MasterCard</tspan></text></g></g></g></svg>