<svg xmlns="http://www.w3.org/2000/svg" width="170" height="85" viewBox="0 0 170 85"><g><g><path fill="#c5d5e6" d="M0 10C0 4.477 4.477 0 10 0h150c5.523 0 10 4.477 10 10v65c0 5.523-4.477 10-10 10H10C4.477 85 0 80.523 0 75z"/></g><g><path fill="#fff" d="M76.795 26.904V15.009h12.36v11.895zm13.497.574V14.436a.571.571 0 0 0-.568-.574H76.226a.571.571 0 0 0-.569.574v13.042c0 .316.255.573.569.573h13.498a.571.571 0 0 0 .568-.573zm-13.2 2.608a.571.571 0 0 0-.569-.574h-.297a.571.571 0 0 0-.569.574c0 .317.255.573.57.573h.296a.571.571 0 0 0 .57-.573zm2.438 0a.571.571 0 0 0-.569-.574h-.297a.571.571 0 0 0-.569.574c0 .317.255.573.57.573h.296a.571.571 0 0 0 .57-.573zm2.449 0a.573.573 0 0 0-.573-.574h-.3a.573.573 0 0 0 0 1.147h.3a.573.573 0 0 0 .573-.573zm-4.887 1.83a.571.571 0 0 0-.569-.573h-.297a.571.571 0 0 0-.569.574c0 .317.255.573.57.573h.296a.571.571 0 0 0 .57-.573zm2.438 0a.571.571 0 0 0-.569-.573h-.297a.571.571 0 0 0-.569.574c0 .317.255.573.57.573h.296a.571.571 0 0 0 .57-.573zm2.449 0a.573.573 0 0 0-.573-.573h-.3a.573.573 0 0 0 0 1.147h.3a.573.573 0 0 0 .573-.573zm3.92-1.257h3.265v1.713H85.9zm4.403 2.286v-2.859a.571.571 0 0 0-.569-.574h-4.402a.571.571 0 0 0-.57.574v2.86c0 .316.256.573.57.573h4.402a.571.571 0 0 0 .57-.574zm-13.21.803a.571.571 0 0 0-.569-.574h-.297a.571.571 0 0 0-.569.574c0 .317.255.573.57.573h.296a.571.571 0 0 0 .57-.573zm2.438 0a.571.571 0 0 0-.569-.574h-.297a.571.571 0 0 0-.569.574c0 .317.255.573.57.573h.296a.571.571 0 0 0 .57-.573zm2.449 0a.573.573 0 0 0-.573-.574h-.3a.573.573 0 0 0 0 1.147h.3a.573.573 0 0 0 .573-.573zm-8.731-21.054c0-.853.689-1.547 1.535-1.547h16.393c.847 0 1.535.694 1.535 1.547V35.65H73.248zm0 24.102H92.71v11.025H73.248zm20.601 11.599v-35.7c0-1.486-1.199-2.695-2.673-2.695H74.783c-1.474 0-2.673 1.209-2.673 2.694v35.7c0 .317.255.574.569.574H93.28a.572.572 0 0 0 .57-.573z"/></g><g><g><text fill="#fff" dominant-baseline="text-before-edge" font-family="'Gilroy Light','Gilroy-Light'" font-size="12" transform="translate(32 61)"><tspan>Термінали України</tspan></text></g></g></g></svg>