<svg xmlns="http://www.w3.org/2000/svg" width="30" height="30" viewBox="0 0 30 30"><g><g><path fill="#9c5d9a" d="M0 5a5 5 0 0 1 5-5h20a5 5 0 0 1 5 5v20a5 5 0 0 1-5 5H5a5 5 0 0 1-5-5z"/></g><g><path fill="#fff" d="M8.427 9.25L6.962 7.177l2.35-1.958v3.59zm5.579-3.153a1.707 1.707 0 0 1-1.659-1.32h3.318a1.707 1.707 0 0 1-1.66 1.32zm5.588 3.154l-.884-.443v-3.59l2.35 1.958zm-7.13 6.21h-2.376V4.777h1.468a2.49 2.49 0 0 0 2.455 2.097 2.49 2.49 0 0 0 2.455-2.097h1.467v5.947a.388.388 0 0 0 .777 0V9.677l.836.418a.387.387 0 0 0 .49-.124l1.865-2.64a.388.388 0 0 0-.069-.523l-3.26-2.717a.387.387 0 0 0-.25-.091H9.7a.387.387 0 0 0-.25.092L6.19 6.808a.388.388 0 0 0-.069.523l1.864 2.64a.388.388 0 0 0 .491.124l.836-.418v6.173c0 .214.174.388.388.388h2.764a.388.388 0 1 0 0-.777z"/></g><g><path fill="#fff" d="M18.893 25.244l-.527-9.496a.388.388 0 0 0-.388-.367h-.73a.388.388 0 0 0-.389.367l-.527 9.496h-2.234V13.983h7.03v11.261zm-3.58-12.907v.869h-1.215v-.87zm.788.869v-.87h3.023v.87zm5.036 0h-1.226v-.87h1.226zm.38-1.646h-7.809a.388.388 0 0 0-.388.388v13.684c0 .215.174.389.388.389h2.99a.388.388 0 0 0 .388-.367l.526-9.463.526 9.463a.388.388 0 0 0 .388.367h2.99a.388.388 0 0 0 .389-.389V11.948a.388.388 0 0 0-.388-.388z"/></g></g></svg>