<svg xmlns="http://www.w3.org/2000/svg" width="375" height="188" viewBox="0 0 375 188"><g><g><path fill="#c5d5e6" d="M0 15C0 6.716 6.716 0 15 0h345c8.284 0 15 6.716 15 15v158c0 8.284-6.716 15-15 15H15c-8.284 0-15-6.716-15-15z"/></g><g><g><text fill="#fff" dominant-baseline="text-before-edge" font-family="'Geometria','Geometria-Medium'" font-size="14" transform="translate(26 20)"><tspan>Номер карти</tspan></text></g></g><g><g><text fill="#fff" dominant-baseline="text-before-edge" font-family="'Geometria','Geometria-Medium'" font-size="14" transform="translate(26 109)"><tspan>Термін дії</tspan></text></g></g><g><g><text fill="#fff" dominant-baseline="text-before-edge" font-family="'Geometria','Geometria-Medium'" font-size="14" transform="translate(221 109)"><tspan>CVC/CVV</tspan></text></g></g><g><path fill="#f3f7fa" d="M25 44a5 5 0 0 1 5-5h64a5 5 0 0 1 5 5v30a5 5 0 0 1-5 5H30a5 5 0 0 1-5-5z"/></g><g><path fill="#f3f7fa" d="M109 44a5 5 0 0 1 5-5h64a5 5 0 0 1 5 5v30a5 5 0 0 1-5 5h-64a5 5 0 0 1-5-5z"/></g><g><path fill="#f3f7fa" d="M193 44a5 5 0 0 1 5-5h64a5 5 0 0 1 5 5v30a5 5 0 0 1-5 5h-64a5 5 0 0 1-5-5z"/></g><g><path fill="#f3f7fa" d="M277 44a5 5 0 0 1 5-5h64a5 5 0 0 1 5 5v30a5 5 0 0 1-5 5h-64a5 5 0 0 1-5-5z"/></g><g><path fill="#f3f7fa" d="M25 133a5 5 0 0 1 5-5h120a5 5 0 0 1 5 5v30a5 5 0 0 1-5 5H30a5 5 0 0 1-5-5z"/></g><g><path fill="#f3f7fa" d="M220 133a5 5 0 0 1 5-5h120a5 5 0 0 1 5 5v30a5 5 0 0 1-5 5H225a5 5 0 0 1-5-5z"/></g></g></svg>