<svg xmlns="http://www.w3.org/2000/svg" width="88" height="88" viewBox="0 0 88 88"><defs><mask id="cvo6b" width="2" height="2" x="-1" y="-1"><path fill="#fff" d="M14 12h60v60H14z"/><path d="M44 72c16.569 0 30-13.431 30-30 0-16.569-13.431-30-30-30-16.569 0-30 13.431-30 30 0 16.569 13.431 30 30 30z"/></mask><filter id="cvo6a" width="84" height="86" x="2" y="0" filterUnits="userSpaceOnUse"><feOffset dy="2" in="SourceGraphic" result="FeOffset1023Out"/><feGaussianBlur in="FeOffset1023Out" result="FeGaussianBlur1024Out" stdDeviation="0.8 0.8"/></filter><mask id="cvo6d" width="2" height="2" x="-1" y="-1"><path fill="#fff" d="M14 12h60v60H14z"/><path d="M44 72c16.569 0 30-13.431 30-30 0-16.569-13.431-30-30-30-16.569 0-30 13.431-30 30 0 16.569 13.431 30 30 30z"/></mask><filter id="cvo6c" width="112" height="114" x="-12" y="-14" filterUnits="userSpaceOnUse"><feOffset dy="2" in="SourceGraphic" result="FeOffset1034Out"/><feGaussianBlur in="FeOffset1034Out" result="FeGaussianBlur1035Out" stdDeviation="6.4 6.4"/></filter><mask id="cvo6f" width="2" height="2" x="-1" y="-1"><path fill="#fff" d="M26 26h38v38H26z"/><path d="M60.439 26.25H29.06c-1.576 0-3.061 1.476-3.061 3.061v22.194c0 1.775 1.485 3.25 3.061 3.061.248.19 1.53 0 1.53 0v9.184l9.95-9.184s19.65.19 19.898 0c1.576.19 3.061-1.286 3.061-3.06V29.31c0-1.585-1.485-3.061-3.061-3.061z"/></mask><filter id="cvo6e" width="64" height="65" x="13" y="13" filterUnits="userSpaceOnUse"><feOffset dy="1" in="SourceGraphic" result="FeOffset1050Out"/><feGaussianBlur in="FeOffset1050Out" result="FeGaussianBlur1051Out" stdDeviation="1.2 1.2"/></filter></defs><g><g><g filter="url(#cvo6a)"><path fill="none" d="M44 72c16.569 0 30-13.431 30-30 0-16.569-13.431-30-30-30-16.569 0-30 13.431-30 30 0 16.569 13.431 30 30 30z" mask="url(&quot;#cvo6b&quot;)"/><path fill-opacity=".2" d="M44 72c16.569 0 30-13.431 30-30 0-16.569-13.431-30-30-30-16.569 0-30 13.431-30 30 0 16.569 13.431 30 30 30z"/></g><g filter="url(#cvo6c)"><path fill="none" d="M44 72c16.569 0 30-13.431 30-30 0-16.569-13.431-30-30-30-16.569 0-30 13.431-30 30 0 16.569 13.431 30 30 30z" mask="url(&quot;#cvo6d&quot;)"/><path fill="#9d5e9b" d="M44 72c16.569 0 30-13.431 30-30 0-16.569-13.431-30-30-30-16.569 0-30 13.431-30 30 0 16.569 13.431 30 30 30z"/></g><path fill="#9d5e9b" d="M44 72c16.569 0 30-13.431 30-30 0-16.569-13.431-30-30-30-16.569 0-30 13.431-30 30 0 16.569 13.431 30 30 30z"/></g><g><g filter="url(#cvo6e)"><path fill="none" d="M60.439 26.25H29.06c-1.576 0-3.061 1.476-3.061 3.061v22.194c0 1.775 1.485 3.25 3.061 3.061.248.19 1.53 0 1.53 0v9.184l9.95-9.184s19.65.19 19.898 0c1.576.19 3.061-1.286 3.061-3.06V29.31c0-1.585-1.485-3.061-3.061-3.061z" mask="url(&quot;#cvo6f&quot;)"/><path fill-opacity=".4" d="M60.439 26.25H29.06c-1.576 0-3.061 1.476-3.061 3.061v22.194c0 1.775 1.485 3.25 3.061 3.061.248.19 1.53 0 1.53 0v9.184l9.95-9.184s19.65.19 19.898 0c1.576.19 3.061-1.286 3.061-3.06V29.31c0-1.585-1.485-3.061-3.061-3.061z"/></g><path fill="#fff" d="M60.439 26.25H29.06c-1.576 0-3.061 1.476-3.061 3.061v22.194c0 1.775 1.485 3.25 3.061 3.061.248.19 1.53 0 1.53 0v9.184l9.95-9.184s19.65.19 19.898 0c1.576.19 3.061-1.286 3.061-3.06V29.31c0-1.585-1.485-3.061-3.061-3.061z"/></g></g></svg>