<svg xmlns="http://www.w3.org/2000/svg" width="18" height="18" viewBox="0 0 18 18"><defs><linearGradient id="53iqa" x1="4.72" x2="23.74" y1="14.89" y2="-3.08" gradientUnits="userSpaceOnUse"><stop offset="0" stop-color="#e53656"/><stop offset="1" stop-color="#6082d8"/></linearGradient><linearGradient id="53iqb" x1="9.26" x2="10.32" y1="12.27" y2="2.29" gradientUnits="userSpaceOnUse"><stop offset="0" stop-color="#e53656"/><stop offset="1" stop-color="#6082d8"/></linearGradient><linearGradient id="53iqc" x1="9.26" x2="10.32" y1="12.27" y2="2.29" gradientUnits="userSpaceOnUse"><stop offset="0" stop-color="#e53656"/><stop offset="1" stop-color="#6082d8"/></linearGradient></defs><g><g><path fill="url(#53iqa)" d="M8.941 16.882C4.561 16.882 1 13.32 1 8.942 1 4.561 4.562 1 8.941 1c4.38 0 7.941 3.562 7.941 7.941 0 4.38-3.562 7.941-7.94 7.941zM9 0C4.037 0 0 4.037 0 9s4.037 9 9 9 9-4.037 9-9-4.037-9-9-9z"/></g><g><path fill="url(#53iqb)" d="M9 4h1v10H9z"/></g><g transform="rotate(90 9.5 9)"><path fill="url(#53iqc)" d="M9 4h1v10H9z"/></g></g></svg>