<svg xmlns="http://www.w3.org/2000/svg" width="30" height="28" viewBox="0 0 30 28"><g><g><path fill="#fff" d="M27.104 10.874H2.933l12.085-8.971zm-4.91 15.13h-1.526V12.679a.837.837 0 0 0-.008-.109h1.543a.837.837 0 0 0-.008.11zm1.68-.01V13.527h1.527v12.467zm-6.413 0V13.527h1.517v12.467zm-6.412 0V13.527h1.526v12.467zm-6.413 0V13.527h1.516v12.467zm4.733.01H7.842V12.679a.837.837 0 0 0-.008-.109h1.543a.837.837 0 0 0-.008.11zm4.886 0V12.679a.831.831 0 0 0-.008-.109H15.8a.831.831 0 0 0-.008.11v13.324zM2.955 12.57a.844.844 0 0 0-.008.11v13.324h-.464a.847.847 0 0 0-.845.848c0 .468.379.848.845.848h25.07c.467 0 .845-.38.845-.848a.847.847 0 0 0-.845-.848h-.463V12.679a.842.842 0 0 0-.008-.109h.682a1.477 1.477 0 0 0 .876-2.665L15.52.167a.843.843 0 0 0-1.005 0l-13.12 9.74a1.478 1.478 0 0 0 .877 2.664z"/></g></g></svg>